# xmcd
#
# Track frame offsets:
#	150
#	15605
#	30567
#	45411
#	60690
#	69733
#	82842
#	97594
#	110258
#	122376
#
# Disc length: 1762 seconds
#
# Revision: 1
# Processed by: cddbd v1.5.2PL0 Copyright (c) Steve Scherf et al.
# Submitted via: audiograbber 1.83.01
#
DISCID=6906e00a
DTITLE=Fruto da Terra - Fruto da Terra
DYEAR=1981
DGENRE=Pop
TTITLE0=Homem do Campo
TTITLE1=Laranjal
TTITLE2=Razões
TTITLE3=João Valentão
TTITLE4=Tenho Que Dizer
TTITLE5=Alegria Rasgada
TTITLE6=Saudades
TTITLE7=Deus, Deus
TTITLE8=As Rosas Não Falam
TTITLE9=Tá Tudo Aí
EXTD=
EXTT0=
EXTT1=
EXTT2=
EXTT3=
EXTT4=
EXTT5=
EXTT6=
EXTT7=
EXTT8=
EXTT9=
PLAYORDER=
